<?xml version="1.0" encoding="utf-8"?>
<svg width="800px" height="800px" viewBox="0 0 24 24" fill="none" xmlns="http://www.w3.org/2000/svg">
<path d="M12.0355 8.52113C12.4261 8.1306 13.0674 8.12674 13.3881 8.57637C14.0882 9.55788 14.5 10.7592 14.5 12.0567C14.5 13.3541 14.0882 14.5554 13.3881 15.537C13.0674 15.9866 12.4261 15.9827 12.0355 15.5922C11.645 15.2017 11.6586 14.5725 11.9408 14.0978C12.296 13.5002 12.5 12.8023 12.5 12.0567C12.5 11.3111 12.296 10.6131 11.9408 10.0156C11.6586 9.54084 11.645 8.91165 12.0355 8.52113Z" fill="#000000"/>
<path d="M14.864 5.69316C15.2545 5.30263 15.8921 5.29976 16.2419 5.72712C17.6532 7.45118 18.5 9.65526 18.5 12.0571C18.5 14.459 17.6532 16.6631 16.2419 18.3871C15.8921 18.8145 15.2545 18.8116 14.864 18.4211C14.4734 18.0306 14.4792 17.4007 14.8183 16.9648C15.8723 15.6098 16.5 13.9068 16.5 12.0571C16.5 10.2075 15.8723 8.50445 14.8183 7.14944C14.4792 6.71351 14.4734 6.08368 14.864 5.69316Z" fill="#000000"/>
<path d="M17.6929 2.79322C18.0835 2.40268 18.7197 2.40049 19.0815 2.81776C21.2113 5.2739 22.5002 8.47903 22.5002 11.9852C22.5002 15.5312 21.1818 18.7693 19.0085 21.2361C18.6434 21.6505 18.0073 21.6433 17.6198 21.2497C17.2324 20.8562 17.2409 20.2256 17.6011 19.8069C19.408 17.7063 20.5002 14.9733 20.5002 11.9852C20.5002 9.03126 19.4329 6.32661 17.6628 4.23586C17.306 3.81436 17.3024 3.18373 17.6929 2.79322Z" fill="#000000"/>
<path d="M10 16.5858V7.41421C10 6.52331 8.92286 6.07714 8.29289 6.70711L6.29289 8.70711C6.10536 8.89464 5.851 9 5.58579 9H4C3.44772 9 3 9.44772 3 10V14C3 14.5523 3.44772 15 4 15H5.58579C5.851 15 6.10536 15.1054 6.29289 15.2929L8.29289 17.2929C8.92286 17.9229 10 17.4767 10 16.5858Z" stroke="#000000" stroke-width="2" stroke-linecap="round"/>
</svg>